<svg
  width="169"
  height="169"
  viewBox="0 0 169 169"
  fill="none"
  xmlns="http://www.w3.org/2000/svg"
>
  <path
    d="M168.51 88.3998C168.525 88.1106 168.54 87.8137 168.548 87.5093L168.707 83.7876L168.563 83.7495C168.296 64.0829 161.279 45.4513 148.63 30.5643L148.782 30.4045L144.794 26.3098C128.818 9.893 107.409 0.858826 84.5229 0.858826C72.7716 0.858826 61.4618 3.22581 50.8445 7.8837L50.7608 7.81523L47.313 9.52007C42.7465 11.7805 38.4311 14.4291 34.4125 17.4126C31.7334 19.4067 29.1762 21.5529 26.7711 23.8286C25.873 24.681 24.9978 25.5563 24.1377 26.4468C12.318 38.6547 4.28843 54.318 1.52566 71.4655L0.635181 77.0138L0.833061 77.0595C0.589511 79.67 0.452515 82.2958 0.452515 84.9292C0.452515 107.206 9.34209 128.57 24.9826 144.272L24.9141 144.393L28.4151 147.537C43.8577 161.373 63.7755 169 84.5077 169C85.9766 169 87.4455 168.962 88.8992 168.885C99.0978 168.368 108.969 166.031 118.285 161.929C118.285 161.929 118.293 161.929 118.3 161.921L121.946 160.315V160.201C149.079 146.661 167.208 118.973 168.479 88.6205C168.479 88.6129 168.479 88.5977 168.479 88.5901C168.479 88.5748 168.479 88.5596 168.479 88.552V88.415L168.51 88.3998ZM156.187 92.9968C156.157 93.3012 156.111 93.598 156.073 93.8949C156.005 94.4124 155.944 94.9224 155.868 95.4399C155.822 95.7672 155.761 96.0944 155.708 96.4293C155.632 96.9088 155.556 97.3883 155.464 97.8602C155.403 98.2027 155.327 98.5451 155.259 98.8876C155.168 99.3443 155.076 99.8009 154.977 100.258C154.901 100.608 154.817 100.958 154.734 101.3C154.627 101.749 154.521 102.191 154.406 102.632C154.315 102.982 154.224 103.332 154.125 103.683C154.003 104.116 153.889 104.55 153.76 104.984C153.661 105.334 153.554 105.684 153.44 106.034C153.31 106.461 153.173 106.887 153.029 107.313C152.915 107.663 152.801 108.006 152.679 108.348C152.534 108.774 152.382 109.193 152.23 109.611C152.108 109.954 151.979 110.296 151.849 110.631C151.689 111.05 151.522 111.469 151.354 111.879C151.217 112.214 151.08 112.549 150.943 112.884C150.768 113.303 150.586 113.714 150.403 114.125C150.258 114.452 150.114 114.779 149.962 115.099C149.771 115.51 149.574 115.921 149.368 116.332C149.216 116.644 149.064 116.964 148.904 117.276C148.691 117.694 148.478 118.105 148.257 118.516C148.097 118.813 147.945 119.118 147.777 119.414C147.541 119.841 147.298 120.259 147.062 120.685C146.902 120.967 146.75 121.241 146.582 121.523C146.308 121.987 146.027 122.436 145.745 122.893C145.601 123.121 145.464 123.357 145.319 123.585C144.923 124.202 144.52 124.811 144.109 125.419C144.071 125.48 144.025 125.541 143.987 125.602C143.53 126.272 143.059 126.926 142.587 127.581C142.45 127.771 142.297 127.954 142.16 128.144C141.818 128.601 141.475 129.057 141.125 129.506C140.935 129.75 140.737 129.986 140.539 130.229C140.227 130.618 139.915 131.006 139.596 131.386C139.382 131.645 139.162 131.896 138.941 132.147C138.629 132.505 138.325 132.863 138.005 133.213C137.769 133.472 137.533 133.723 137.297 133.982C136.985 134.317 136.673 134.659 136.353 134.994C136.11 135.253 135.859 135.504 135.607 135.755C135.288 136.075 134.968 136.402 134.641 136.714C134.382 136.965 134.123 137.209 133.857 137.46C133.53 137.772 133.202 138.076 132.868 138.381C132.601 138.624 132.327 138.868 132.053 139.104C131.718 139.401 131.376 139.697 131.033 139.987C130.752 140.223 130.478 140.459 130.196 140.687C129.846 140.976 129.503 141.258 129.146 141.532C128.857 141.76 128.575 141.981 128.286 142.209C127.928 142.483 127.57 142.757 127.205 143.023C126.908 143.237 126.619 143.457 126.322 143.67C125.949 143.937 125.576 144.196 125.203 144.454C124.906 144.66 124.61 144.865 124.305 145.063C123.917 145.322 123.529 145.565 123.141 145.817C122.844 146.007 122.539 146.205 122.235 146.387C121.953 146.562 121.664 146.73 121.375 146.897C120.013 129.164 116.047 110.799 109.73 93.1414C125.356 89.6251 141.217 89.5186 156.195 92.8445C156.195 92.8902 156.187 92.9359 156.18 92.9815L156.187 92.9968ZM105.354 81.9305C103.238 76.9225 100.97 72.0134 98.5346 67.2718C114.228 60.1328 128.468 50.5506 140.273 39.1799C149.977 50.9844 155.639 65.43 156.515 80.728C139.93 77.402 122.479 77.813 105.354 81.9229V81.9305ZM14.5175 67.4849C14.7915 66.3813 15.096 65.293 15.4156 64.2122C15.4765 64.0143 15.5374 63.8165 15.5983 63.611C15.9255 62.5531 16.2756 61.5027 16.6486 60.4677C16.6714 60.3992 16.7019 60.323 16.7247 60.2545C16.7704 60.1251 16.8236 59.9958 16.8693 59.8664C17.2498 58.8389 17.6532 57.8191 18.0794 56.8144C18.1403 56.6698 18.2012 56.5252 18.2621 56.3806C18.2773 56.3501 18.2925 56.3197 18.3002 56.2893C18.7416 55.2618 19.2135 54.2495 19.7082 53.2449C19.7843 53.0851 19.868 52.9252 19.9441 52.7578C20.4464 51.7455 20.9792 50.7485 21.5272 49.7667C21.5272 49.7667 21.5272 49.7667 21.5272 49.7591C21.6109 49.6068 21.7022 49.447 21.786 49.2948C22.334 48.3358 22.9048 47.3921 23.4908 46.4559C23.5593 46.3494 23.6202 46.2504 23.6887 46.1439C23.7344 46.0754 23.7724 46.0145 23.8181 45.946C24.4193 45.0098 25.0434 44.0889 25.6828 43.1908C25.7969 43.031 25.9111 42.8635 26.0329 42.7037C26.695 41.7904 27.3724 40.8923 28.0726 40.0095C28.1868 39.8649 28.3009 39.7279 28.4151 39.5833C29.1305 38.7004 29.8612 37.8328 30.6146 36.9803C30.7136 36.8738 30.8125 36.7672 30.9039 36.6531C31.6878 35.7854 32.4869 34.933 33.3089 34.1034C33.4002 34.012 33.4916 33.9207 33.5829 33.837C34.3821 33.0379 35.2116 32.2539 36.0489 31.4928C36.125 31.4243 36.2011 31.3482 36.2772 31.2797C36.3228 31.2417 36.3609 31.2036 36.4066 31.1656C37.2438 30.4121 38.1114 29.6814 38.9867 28.966C39.1313 28.8518 39.2683 28.7301 39.4129 28.6159C40.3034 27.9081 41.2091 27.2155 42.13 26.5457C42.2898 26.4316 42.4496 26.3098 42.6171 26.1956C43.5456 25.5335 44.4894 24.8865 45.456 24.2624C45.6082 24.1635 45.7604 24.0646 45.9202 23.9732C46.9096 23.3415 47.9143 22.7326 48.9418 22.1542C49.0179 22.1161 49.0864 22.0705 49.1625 22.0324C61.2258 32.5279 72.2769 45.9384 81.5013 61.244C59.2546 69.0756 35.752 71.336 14.4414 67.7208C14.4642 67.6447 14.4795 67.561 14.5023 67.4849H14.5175ZM88.0087 12.8841C88.3892 12.8993 88.7774 12.9374 89.1579 12.9602C89.9342 13.0059 90.7029 13.0592 91.4793 13.1353C91.9283 13.1809 92.3774 13.2342 92.8264 13.2875C93.519 13.3636 94.2192 13.4473 94.9118 13.5462C95.3837 13.6147 95.8556 13.6909 96.3274 13.767C96.9896 13.8735 97.6517 13.9877 98.3063 14.1171C98.7858 14.2084 99.2653 14.3073 99.7371 14.4063C100.384 14.5433 101.023 14.6879 101.67 14.8477C102.142 14.9619 102.614 15.0836 103.086 15.2054C103.725 15.3729 104.365 15.5555 104.996 15.7458C105.453 15.8828 105.917 16.0122 106.374 16.1568C107.021 16.3623 107.668 16.583 108.307 16.8037C108.733 16.956 109.167 17.1005 109.593 17.2528C110.293 17.5115 110.978 17.7855 111.663 18.0671C112.029 18.2117 112.394 18.3487 112.752 18.501C113.734 18.9196 114.708 19.361 115.674 19.8253C115.773 19.8709 115.872 19.9166 115.964 19.9699C116.938 20.4417 117.897 20.9365 118.856 21.454C119.198 21.6367 119.533 21.8422 119.876 22.0324C120.523 22.3978 121.17 22.7707 121.809 23.1512C122.197 23.3872 122.578 23.6383 122.966 23.8819C123.544 24.2472 124.123 24.6202 124.693 25.0007C125.097 25.2671 125.485 25.5487 125.881 25.8303C126.429 26.2108 126.969 26.599 127.502 27.0024C127.898 27.2916 128.286 27.5961 128.674 27.9005C129.199 28.3115 129.724 28.73 130.234 29.1486C130.615 29.4607 130.988 29.7728 131.361 30.0924C131.558 30.2675 131.756 30.4425 131.954 30.6176C120.911 41.2424 107.516 50.1701 92.7427 56.7764C83.7009 41.4327 72.9086 27.7863 61.0508 16.6896C68.5475 14.1018 76.402 12.7928 84.5077 12.7928C85.6797 12.7928 86.8442 12.8232 88.0011 12.8765L88.0087 12.8841ZM12.592 79.5102C19.8223 80.728 27.2734 81.3368 34.8387 81.3368C52.2525 81.3368 70.2372 78.125 87.4303 71.8232C89.6983 76.1842 91.837 80.6747 93.8158 85.2793C92.8188 85.6218 91.8141 85.9567 90.8247 86.3144C65.6097 95.6378 44.7177 112.237 31.1702 133.456C19.1526 120.252 12.3788 102.929 12.3788 84.9216C12.3788 83.1102 12.455 81.3064 12.5843 79.5026L12.592 79.5102ZM81.3263 156.982C80.9762 156.967 80.6337 156.936 80.2836 156.913C79.5758 156.875 78.868 156.83 78.1601 156.769C77.7491 156.731 77.3382 156.685 76.9272 156.639C76.2878 156.571 75.6485 156.502 75.0092 156.419C74.5754 156.358 74.1416 156.297 73.7154 156.228C73.1065 156.137 72.4976 156.038 71.8887 155.932C71.4473 155.855 71.0135 155.772 70.572 155.68C69.9784 155.566 69.3771 155.437 68.7835 155.308C68.3496 155.209 67.9082 155.11 67.4744 155.003C66.8807 154.858 66.2947 154.706 65.7086 154.546C65.2824 154.432 64.8562 154.318 64.43 154.189C63.8364 154.014 63.2427 153.831 62.6567 153.648C62.2457 153.519 61.8423 153.39 61.4313 153.253C60.8224 153.047 60.2136 152.826 59.6123 152.606C59.2318 152.469 58.8588 152.332 58.4783 152.187C57.8161 151.928 57.1616 151.654 56.507 151.38C56.195 151.251 55.8829 151.129 55.5785 150.992C54.6424 150.581 53.7138 150.155 52.7929 149.698C52.7701 149.691 52.7549 149.683 52.732 149.668C51.7883 149.204 50.8521 148.716 49.9312 148.214C49.6572 148.062 49.3832 147.902 49.1092 147.742C48.4699 147.384 47.8382 147.019 47.2065 146.639C46.864 146.433 46.5291 146.212 46.1942 145.999C45.6386 145.649 45.0906 145.307 44.5426 144.941C44.1849 144.705 43.8348 144.454 43.4771 144.211C42.9672 143.853 42.4496 143.495 41.9473 143.13C41.5896 142.864 41.2319 142.597 40.8742 142.323C40.6002 142.118 40.3262 141.897 40.0598 141.684C52.146 121.774 71.4625 106.187 94.9575 97.4949C96.0306 97.0991 97.1114 96.7337 98.1997 96.3684C104.89 114.833 108.863 134.111 109.761 152.476C108.718 152.864 107.675 153.237 106.617 153.58C106.336 153.671 106.047 153.747 105.765 153.839C104.935 154.097 104.113 154.341 103.276 154.569C102.858 154.683 102.439 154.782 102.02 154.881C101.305 155.056 100.597 155.231 99.8818 155.391C99.4251 155.49 98.9684 155.581 98.5194 155.665C97.8268 155.802 97.1266 155.932 96.434 156.046C95.9697 156.122 95.5055 156.198 95.0412 156.267C94.3258 156.373 93.6103 156.457 92.8949 156.54C92.4459 156.594 92.0044 156.647 91.5554 156.693C90.7715 156.769 89.9799 156.822 89.1884 156.875C88.8078 156.898 88.4273 156.936 88.0391 156.951C86.8671 157.005 85.6873 157.043 84.5 157.043C83.4345 157.043 82.3766 157.02 81.3187 156.967L81.3263 156.982Z"
    fill="#FFFFFF"
  />
</svg>
